<svg xmlns="http://www.w3.org/2000/svg" width="660" height="276" viewBox="0 0 660 276" role="img" aria-label="A teacher handing one worksheet to each of three students"><rect width="660" height="276" fill="#fff"/><circle cx="96.0" cy="96.7" r="21.0" fill="none" stroke="#111" stroke-width="3.2"/><line x1="96.0" y1="124.0" x2="96.0" y2="189.1" stroke="#111" stroke-width="3.2" stroke-linecap="round"/><line x1="96.0" y1="130.3" x2="66.6" y2="153.4" stroke="#111" stroke-width="3.2" stroke-linecap="round"/><line x1="96.0" y1="130.3" x2="156.9" y2="128.2" stroke="#111" stroke-width="3.2" stroke-linecap="round"/><line x1="96.0" y1="189.1" x2="72.9" y2="250.0" stroke="#111" stroke-width="3.2" stroke-linecap="round"/><line x1="96.0" y1="189.1" x2="119.1" y2="250.0" stroke="#111" stroke-width="3.2" stroke-linecap="round"/><g transform="rotate(-14 156.9 128.2)"><rect x="148.4" y="117.2" width="17" height="22" fill="#fff" stroke="#111" stroke-width="2"/><line x1="151.8" y1="124.7" x2="162.0" y2="124.7" stroke="#111" stroke-width="1.4" stroke-linecap="round"/><line x1="151.8" y1="130.8" x2="162.0" y2="130.8" stroke="#111" stroke-width="1.4" stroke-linecap="round"/></g><rect x="64.0" y="17.0" width="300" height="50" rx="10" fill="#fff" stroke="#111" stroke-width="3.2"/><line x1="214.0" y1="67.0" x2="108.0" y2="69.7" stroke="#111" stroke-width="3.2" stroke-linecap="round"/><text x="214.0" y="47.8" font-family="Georgia,'Times New Roman',serif" font-size="17" font-weight="normal" text-anchor="middle" fill="#111">Distribute these, please.</text><circle cx="336.0" cy="121.7" r="18.4" fill="none" stroke="#111" stroke-width="3.2"/><line x1="336.0" y1="145.6" x2="336.0" y2="202.6" stroke="#111" stroke-width="3.2" stroke-linecap="round"/><line x1="336.0" y1="151.1" x2="299.2" y2="156.6" stroke="#111" stroke-width="3.2" stroke-linecap="round"/><line x1="336.0" y1="151.1" x2="372.8" y2="156.6" stroke="#111" stroke-width="3.2" stroke-linecap="round"/><line x1="336.0" y1="202.6" x2="318.5" y2="250.5" stroke="#111" stroke-width="3.2" stroke-linecap="round"/><line x1="336.0" y1="202.6" x2="353.5" y2="250.5" stroke="#111" stroke-width="3.2" stroke-linecap="round"/><g transform="rotate(7 372.8 156.64)"><rect x="364.3" y="145.6" width="17" height="22" fill="#fff" stroke="#111" stroke-width="2"/><line x1="367.7" y1="153.1" x2="377.9" y2="153.1" stroke="#111" stroke-width="1.4" stroke-linecap="round"/><line x1="367.7" y1="159.3" x2="377.9" y2="159.3" stroke="#111" stroke-width="1.4" stroke-linecap="round"/></g><circle cx="456.0" cy="121.7" r="18.4" fill="none" stroke="#111" stroke-width="3.2"/><line x1="456.0" y1="145.6" x2="456.0" y2="202.6" stroke="#111" stroke-width="3.2" stroke-linecap="round"/><line x1="456.0" y1="151.1" x2="419.2" y2="156.6" stroke="#111" stroke-width="3.2" stroke-linecap="round"/><line x1="456.0" y1="151.1" x2="492.8" y2="156.6" stroke="#111" stroke-width="3.2" stroke-linecap="round"/><line x1="456.0" y1="202.6" x2="438.5" y2="250.5" stroke="#111" stroke-width="3.2" stroke-linecap="round"/><line x1="456.0" y1="202.6" x2="473.5" y2="250.5" stroke="#111" stroke-width="3.2" stroke-linecap="round"/><g transform="rotate(-6 492.8 156.64)"><rect x="484.3" y="145.6" width="17" height="22" fill="#fff" stroke="#111" stroke-width="2"/><line x1="487.7" y1="153.1" x2="497.9" y2="153.1" stroke="#111" stroke-width="1.4" stroke-linecap="round"/><line x1="487.7" y1="159.3" x2="497.9" y2="159.3" stroke="#111" stroke-width="1.4" stroke-linecap="round"/></g><circle cx="576.0" cy="121.7" r="18.4" fill="none" stroke="#111" stroke-width="3.2"/><line x1="576.0" y1="145.6" x2="576.0" y2="202.6" stroke="#111" stroke-width="3.2" stroke-linecap="round"/><line x1="576.0" y1="151.1" x2="539.2" y2="156.6" stroke="#111" stroke-width="3.2" stroke-linecap="round"/><line x1="576.0" y1="151.1" x2="612.8" y2="156.6" stroke="#111" stroke-width="3.2" stroke-linecap="round"/><line x1="576.0" y1="202.6" x2="558.5" y2="250.5" stroke="#111" stroke-width="3.2" stroke-linecap="round"/><line x1="576.0" y1="202.6" x2="593.5" y2="250.5" stroke="#111" stroke-width="3.2" stroke-linecap="round"/><g transform="rotate(9 612.8 156.64)"><rect x="604.3" y="145.6" width="17" height="22" fill="#fff" stroke="#111" stroke-width="2"/><line x1="607.7" y1="153.1" x2="617.9" y2="153.1" stroke="#111" stroke-width="1.4" stroke-linecap="round"/><line x1="607.7" y1="159.3" x2="617.9" y2="159.3" stroke="#111" stroke-width="1.4" stroke-linecap="round"/></g></svg>
