<svg xmlns="http://www.w3.org/2000/svg" width="660" height="314" viewBox="0 0 660 314" role="img" aria-label="The same item bought two ways: coupon first costs $20, gift card first costs $22.50"><rect width="660" height="314" fill="#fff"/><g transform="translate(0,14)"><path d="M140.0,120.0 Q140.1,133.9 142.6,147.5" fill="none" stroke="#111" stroke-width="1.3" stroke-linecap="round"/><path d="M142.6,147.5 Q143.4,160.6 146.9,173.3" fill="none" stroke="#111" stroke-width="1.3" stroke-linecap="round"/><path d="M146.9,173.3 Q145.5,191.5 142.6,209.4" fill="none" stroke="#111" stroke-width="1.3" stroke-linecap="round"/><path d="M142.6,209.4 Q140.9,227.6 138.3,245.6" fill="none" stroke="#111" stroke-width="1.3" stroke-linecap="round"/><line x1="146.9" y1="173.3" x2="164.1" y2="211.2" stroke="#111" stroke-width="1.3" stroke-linecap="round"/><line x1="164.1" y1="211.2" x2="168.4" y2="245.6" stroke="#111" stroke-width="1.3" stroke-linecap="round"/><path d="M140.0,120.0 Q134.7,133.5 131.4,147.5" fill="none" stroke="#111" stroke-width="1.3" stroke-linecap="round"/><path d="M131.4,147.5 Q131.6,160.0 133.1,172.5" fill="none" stroke="#111" stroke-width="1.3" stroke-linecap="round"/><path d="M140.0,120.0 Q148.1,127.0 154.6,135.5" fill="none" stroke="#111" stroke-width="1.3" stroke-linecap="round"/><path d="M154.6,135.5 Q161.2,129.3 169.2,125.2" fill="none" stroke="#111" stroke-width="1.3" stroke-linecap="round"/><ellipse cx="140.0" cy="101.9" rx="21.5" ry="19.8" transform="rotate(6 140.0 101.9)" fill="#fff" stroke="#111" stroke-width="1.3"/><rect x="126.0" y="25.0" width="152" height="30" rx="10" fill="#fff" stroke="#111" stroke-width="1.3"/><path d="M143.0,55.0 L152.0,79.2 L161.0,55.0 Z" fill="#fff" stroke="#111" stroke-width="1.3" stroke-linejoin="round"/><line x1="144.4" y1="55.0" x2="159.6" y2="55.0" stroke="#fff" stroke-width="2.5"/><text x="202.0" y="44.8" font-family="'Open Sans',Helvetica,Arial,sans-serif" font-size="14" font-weight="bold" text-anchor="middle" fill="#111">Coupon first.</text><g transform="rotate(-7 193.2 121.2)"><rect x="166.2" y="108.2" width="54" height="26" fill="#fff" stroke="#111" stroke-width="1.3"/><text x="193.2" y="126.2" font-family="'Open Sans',Helvetica,Arial,sans-serif" font-size="12" font-weight="bold" text-anchor="middle" fill="#111">25% off</text></g><text x="140.0" y="286.0" font-family="'Open Sans',Helvetica,Arial,sans-serif" font-size="26" font-weight="bold" text-anchor="middle" fill="#111">$20.00</text><path d="M500.0,120.0 Q498.7,133.9 495.7,147.5" fill="none" stroke="#111" stroke-width="1.3" stroke-linecap="round"/><path d="M495.7,147.5 Q494.1,160.6 490.5,173.3" fill="none" stroke="#111" stroke-width="1.3" stroke-linecap="round"/><path d="M490.5,173.3 Q488.9,191.4 489.7,209.4" fill="none" stroke="#111" stroke-width="1.3" stroke-linecap="round"/><path d="M489.7,209.4 Q489.7,227.5 491.4,245.6" fill="none" stroke="#111" stroke-width="1.3" stroke-linecap="round"/><line x1="490.5" y1="173.3" x2="502.6" y2="212.9" stroke="#111" stroke-width="1.3" stroke-linecap="round"/><line x1="502.6" y1="212.9" x2="509.5" y2="245.6" stroke="#111" stroke-width="1.3" stroke-linecap="round"/><path d="M500.0,120.0 Q507.7,124.1 513.8,130.3" fill="none" stroke="#111" stroke-width="1.3" stroke-linecap="round"/><path d="M513.8,130.3 Q520.7,124.5 529.2,121.7" fill="none" stroke="#111" stroke-width="1.3" stroke-linecap="round"/><path d="M500.0,120.0 Q492.7,132.5 487.1,145.8" fill="none" stroke="#111" stroke-width="1.3" stroke-linecap="round"/><path d="M487.1,145.8 Q480.0,143.0 472.5,142.4" fill="none" stroke="#111" stroke-width="1.3" stroke-linecap="round"/><ellipse cx="500.0" cy="101.9" rx="21.5" ry="19.8" transform="rotate(-11 500.0 101.9)" fill="#fff" stroke="#111" stroke-width="1.3"/><rect x="362.0" y="25.0" width="152" height="30" rx="10" fill="#fff" stroke="#111" stroke-width="1.3"/><path d="M479.0,55.0 L488.0,79.2 L497.0,55.0 Z" fill="#fff" stroke="#111" stroke-width="1.3" stroke-linejoin="round"/><line x1="480.4" y1="55.0" x2="495.6" y2="55.0" stroke="#fff" stroke-width="2.5"/><text x="438.0" y="44.8" font-family="'Open Sans',Helvetica,Arial,sans-serif" font-size="14" font-weight="bold" text-anchor="middle" fill="#111">Gift card first.</text><g transform="rotate(7 448.5 138.4)"><rect x="421.5" y="125.4" width="54" height="26" fill="#fff" stroke="#111" stroke-width="1.3"/><text x="448.5" y="143.4" font-family="'Open Sans',Helvetica,Arial,sans-serif" font-size="12" font-weight="bold" text-anchor="middle" fill="#111">$10 card</text></g><text x="500.0" y="286.0" font-family="'Open Sans',Helvetica,Arial,sans-serif" font-size="26" font-weight="bold" text-anchor="middle" fill="#111">$22.50</text><line x1="40.0" y1="252.0" x2="620.0" y2="252.0" stroke="#111" stroke-width="1.3" stroke-linecap="round"/></g></svg>
